# xmcd
#
# Track frame offsets:
# 150
# 16306
# 37609
# 55862
# 73542
# 94924
# 113870
# 134542
# 155445
# 179079
# 198190
# 219773
# 246678
# 266636
# 291983
#
# Disc length: 4171 seconds
#
#
# Revision: 0
# Processed by: cddbd v1.5.1PL2 Copyright (c) Steve Scherf et al.
# Submitted via: FreeRIP 2.945 
#
DISCID=dd10490f
DTITLE=Janet Jackson - Design Of A Decade
DYEAR=1996
DGENRE=A Cappella
TTITLE0=Runaway
TTITLE1=What have You Done For me Lately
TTITLE2=Nasty
TTITLE3=When  I Think Of You
TTITLE4=Escapade
TTITLE5=Miss You Much
TTITLE6=Love Will Never Do (Without You)
TTITLE7=Alright
TTITLE8=Control
TTITLE9=The Pleasure Principal
TTITLE10=Black Cat
TTITLE11=Rhythm Nation
TTITLE12=That's The Way Love Goes
TTITLE13=Come Back To Me
TTITLE14=Let's Wait Awhile
EXTD=
EXTT0=
EXTT1=
EXTT2=
EXTT3=
EXTT4=
EXTT5=
EXTT6=
EXTT7=
EXTT8=
EXTT9=
EXTT10=
EXTT11=
EXTT12=
EXTT13=
EXTT14=
PLAYORDER=
